<?xml version="1.0" encoding="UTF-8" standalone="no"?> <svg id="Layer_1" data-name="Layer 1" xmlns="http://www.w3.org/2000/svg" viewBox="0 0 96 96"><title>cat icon</title>
<desc>cat modern concept ui/ux icon for website, app, presentaion, flyer, brochure etc.</desc>
<metadata><?xpacket begin="﻿" id="W5M0MpCehiHzreSzNTczkc9d"?>
<x:xmpmeta xmlns:x="adobe:ns:meta/" x:xmptk="Adobe XMP Core 5.6-c148 79.163858, 2019/03/06-03:18:36        ">
   <rdf:RDF xmlns:rdf="http://www.w3.org/1999/02/22-rdf-syntax-ns#">
      <rdf:Description rdf:about=""
            xmlns:dc="http://purl.org/dc/elements/1.1/"
            xmlns:xmp="http://ns.adobe.com/xap/1.0/"
            xmlns:xmpMM="http://ns.adobe.com/xap/1.0/mm/"
            xmlns:stEvt="http://ns.adobe.com/xap/1.0/sType/ResourceEvent#">
         <dc:title>
            <rdf:Alt>
               <rdf:li xml:lang="x-default">cat icon</rdf:li>
            </rdf:Alt>
         </dc:title>
         <dc:description>
            <rdf:Alt>
               <rdf:li xml:lang="x-default">cat modern concept ui/ux icon for website, app, presentaion, flyer, brochure etc.</rdf:li>
            </rdf:Alt>
         </dc:description>
         <dc:subject>
            <rdf:Bag>
               <rdf:li>cat</rdf:li>
               <rdf:li>catch</rdf:li>
               <rdf:li>fish</rdf:li>
               <rdf:li>animal</rdf:li>
               <rdf:li>hunting</rdf:li>
            </rdf:Bag>
         </dc:subject>
         <dc:creator>
            <rdf:Seq>
               <rdf:li>dDara</rdf:li>
            </rdf:Seq>
         </dc:creator>
         <xmp:MetadataDate>2023-02-06T12:49:30+07:00</xmp:MetadataDate>
         <xmpMM:InstanceID>xmp.iid:e18633de-5a65-4499-906c-f31c8bb15d65</xmpMM:InstanceID>
         <xmpMM:DocumentID>xmp.did:feac5e2d-bb0c-48c8-a06b-51929fe48cff</xmpMM:DocumentID>
         <xmpMM:OriginalDocumentID>xmp.did:feac5e2d-bb0c-48c8-a06b-51929fe48cff</xmpMM:OriginalDocumentID>
         <xmpMM:History>
            <rdf:Seq>
               <rdf:li>
                  <rdf:Description>
                     <stEvt:action>saved</stEvt:action>
                     <stEvt:instanceID>xmp.iid:feac5e2d-bb0c-48c8-a06b-51929fe48cff</stEvt:instanceID>
                     <stEvt:when>2023-02-06T12:49:22+07:00</stEvt:when>
                     <stEvt:softwareAgent>Adobe Bridge 2019 (Macintosh)</stEvt:softwareAgent>
                     <stEvt:changed>/metadata</stEvt:changed>
                  </rdf:Description>
               </rdf:li>
               <rdf:li>
                  <rdf:Description>
                     <stEvt:action>saved</stEvt:action>
                     <stEvt:instanceID>xmp.iid:e18633de-5a65-4499-906c-f31c8bb15d65</stEvt:instanceID>
                     <stEvt:when>2023-02-06T12:49:30+07:00</stEvt:when>
                     <stEvt:softwareAgent>Adobe Bridge 2019 (Macintosh)</stEvt:softwareAgent>
                     <stEvt:changed>/metadata</stEvt:changed>
                  </rdf:Description>
               </rdf:li>
            </rdf:Seq>
         </xmpMM:History>
      </rdf:Description>
   </rdf:RDF>
</x:xmpmeta>
                                                                                                    
                                                                                                    
                                                                                                    
                                                                                                    
                                                                                                    
                                                                                                    
                                                                                                    
                                                                                                    
                                                                                                    
                                                                                                    
                                                                                                    
                                                                                                    
                                                                                                    
                                                                                                    
                                                                                                    
                                                                                                    
                                                                                                    
                                                                                                    
                                                                                                    
                                                                                                    
                           
<?xpacket end="w"?></metadata>
<path d="M93.743,10.646a1,1,0,0,0-.619-.461c-.284-.072-6.819-1.657-12.408,1.008a21.045,21.045,0,0,0-3.6-1.989c-.016-.01-.026-.027-.044-.036a.973.973,0,0,0-.13-.039,22.02,22.02,0,0,0-2.759-.966c-.034-.012-.06-.036-.095-.045s-.06,0-.091,0a22.62,22.62,0,0,0-2.772-.568.9.9,0,0,0-.1-.011,22.466,22.466,0,0,0-9.105.611c-3.559-4.738-13.162-4-13.586-3.96a1,1,0,0,0-.912,1.095c.08.8.806,7.278,3.568,10.105A17.119,17.119,0,0,0,47.7,23.345a17.718,17.718,0,0,0-2.666.2,1,1,0,1,0,.3,1.976,15.359,15.359,0,0,1,2.194-.17c0,.141-.017.281-.017.422a16.744,16.744,0,0,0,.209,2.624,16.43,16.43,0,0,0-5.073,1.787,1,1,0,1,0,.975,1.746,14.412,14.412,0,0,1,4.543-1.571,17.063,17.063,0,0,0,.713,2.04c-5.145,3.815-11.295,4.06-17.8,4.193-.023,0-.044-.009-.068-.006s-.017.007-.026.008l-.507.01c-1.42.029-2.858.059-4.3.127h-.024l-.012,0a42.155,42.155,0,0,0-6.685.775,19.953,19.953,0,0,0-9.75,4.859A12.108,12.108,0,0,0,6.185,48.21a12.018,12.018,0,0,0,.186,5.836c.736,4.994,1.962,16.066-.406,22.7-.3.846-.807,1.929-1.34,3.075-1.609,3.457-3.273,7.033-2.1,9.1A2.841,2.841,0,0,0,4.865,90.3c.207.02.412.031.614.031,2.736,0,5.027-1.953,6.836-5.809,1.227,2.462,2.483,5,2.394,6.561a2.65,2.65,0,0,0,.734,1.985A3.1,3.1,0,0,0,17.7,94H27a3.154,3.154,0,0,0,2.265-.927A2.545,2.545,0,0,0,30,91.2l-.047-1.026a5.673,5.673,0,0,0-5.565-5.1,8.415,8.415,0,0,0-1.04.026c-1.213-1.848-2.724-4.868-2.375-6.466a1.156,1.156,0,0,1,.479-.756c.186-.023.576-.045.927-.065.806-.044,1.968-.112,3.311-.291.14,1.976,1.33,4.386,2.6,6.93,1.237,2.482,2.515,5.049,2.425,6.624a2.65,2.65,0,0,0,.734,1.985A3.1,3.1,0,0,0,33.7,94H43a3.154,3.154,0,0,0,2.265-.927A2.545,2.545,0,0,0,46,91.2l-.047-1.026a5.673,5.673,0,0,0-5.565-5.1,8.275,8.275,0,0,0-1.007.025c-1.014-1.743-2.765-5.3-2.3-7.189a1.246,1.246,0,0,1,.437-.723,52.661,52.661,0,0,0,11.7-3.049l3.5,17.448A3.013,3.013,0,0,0,55.662,94h9.331A3,3,0,0,0,68,90.9l-.046-1.2a6.146,6.146,0,0,0-3.477-5.291c-.07-1.007-.207-2.109-.355-3.27a39.359,39.359,0,0,1-.419-9.077l5.9,19.848A2.991,2.991,0,0,0,72.46,94H82.8a3,3,0,0,0,3-3.1l-.046-1.2a6.051,6.051,0,0,0-5.568-5.835c-.229-.013-.462.01-.693.019-3.519-8.2-2.2-16.047-.792-24.337,1.013-5.963,2.044-12.126,1.32-18.719a20.216,20.216,0,0,0,2.3-1.684,10.6,10.6,0,0,1,1.931,1.9,1,1,0,0,0,1.586-1.219,12.4,12.4,0,0,0-2.051-2.07A18.353,18.353,0,0,0,86.256,34.5c.183.089.369.169.551.267a.989.989,0,0,0,.471.119,1,1,0,0,0,.474-1.881c-.186-.1-.377-.182-.565-.274a16.9,16.9,0,0,0,1.5-6.958A16.627,16.627,0,0,0,88.6,24.1c2.448-2.552,4.781-10.942,5.248-12.692A1,1,0,0,0,93.743,10.646Zm-16.7.724q.7.338,1.356.729c-.95,2.16-1.837,3.043-2.381,2.892C75.91,14.864,75.817,13.882,77.047,11.37ZM72.6,9.825c-.679,2.27-1.875,5.1-2.971,5.748a.5.5,0,0,1-.477.06c-.4-.449.557-3.162,2.344-6.025C71.87,9.669,72.238,9.744,72.6,9.825ZM64.9,9.571c.59-.092,1.185-.154,1.785-.194-1.073,2.44-1.952,2.987-2.373,2.866C64.222,12.149,64.113,11.417,64.9,9.571ZM58.7,36.517a11.179,11.179,0,0,0,3.725,2c.019.007.032.021.051.027s.028,0,.043.006c.432.143.878.265,1.331.375l5.539,3.63a1,1,0,0,0,.487.162l5.388.329L72.9,44.416a1,1,0,0,0-.361,1.367l1.373,2.361-4.848-2.376a1,1,0,0,0-.5-.1l-7.4.471a14.92,14.92,0,0,1-7.708-1.592.971.971,0,0,0,.11.02,1.038,1.038,0,0,0,.123-.007,3.485,3.485,0,0,0,2.7-1.688c1.137-1.934.487-4.98-.058-6.765A14.99,14.99,0,0,1,58.7,36.517Zm5.344-3.173-.377-1.5,1.52.459Zm-9.831,2.737c.624,1.8,1.182,4.526.444,5.777a1.472,1.472,0,0,1-1.218.716,1,1,0,0,0-.87,1.114.979.979,0,0,0,.239.512A14.882,14.882,0,0,1,48.139,40a1.746,1.746,0,0,1,.69-2.615A14.933,14.933,0,0,1,54.213,36.081ZM34.637,38.49c-.364,3.871-1.112,4.3-1.1,4.314-.027-.013-.786-.43-1.3-4.234C33.036,38.551,33.837,38.526,34.637,38.49ZM23.9,48.521c-.406-.17-1.466-2.225-1.695-9.442.982-.129,1.979-.221,2.985-.286C25.245,46.218,24.263,48.342,23.9,48.521ZM5.07,88.306c-.628-.065-.756-.29-.8-.376-.665-1.172,1.042-4.842,2.172-7.27.553-1.189,1.077-2.313,1.41-3.246,1.709-4.784,1.7-11.493,1.274-16.947.332.589.674,1.167,1.018,1.732a9.871,9.871,0,0,1,1,7.98,30.454,30.454,0,0,0-1.477,6.794,12.3,12.3,0,0,0,1.49,5.157C9.494,86.47,7.435,88.564,5.07,88.306ZM76.726,59.218c-1.437,8.45-2.782,16.453.741,25.025a10.175,10.175,0,0,0-2.207.991,1,1,0,0,0,1.029,1.715,6.659,6.659,0,0,1,3.776-1.082,4.037,4.037,0,0,1,3.687,3.915l.045,1.189A1,1,0,0,1,82.8,92H72.46a.99.99,0,0,1-.946-.676L64.589,68.03A15.248,15.248,0,0,1,66.3,64.571a1,1,0,0,0-1.664-1.111c-4.021,6.023-3.143,12.909-2.5,17.936.111.873.215,1.708.289,2.484-.02,0-.037-.008-.057-.009a8.583,8.583,0,0,0-4.935,1.362A1,1,0,0,0,58.46,86.95a6.708,6.708,0,0,1,3.792-1.083,3.723,3.723,0,0,1,.877.171l.021.008a4.091,4.091,0,0,1,2.8,3.736L66,90.971a.985.985,0,0,1-.281.723,1,1,0,0,1-.725.306H55.662a1.008,1.008,0,0,1-.987-.8L49.98,67.8a1,1,0,0,0-1.96.392l.787,3.923A48.029,48.029,0,0,1,37,75.245a1.026,1.026,0,0,0-.357.124,3.206,3.206,0,0,0-1.51,2.067c-.614,2.5,1.13,6.178,2.175,8.075a11.248,11.248,0,0,0-1.79.716,1,1,0,0,0,.911,1.781,7.554,7.554,0,0,1,3.852-.933,3.667,3.667,0,0,1,3.669,3.192L44,91.281a.564.564,0,0,1-.174.4A1.16,1.16,0,0,1,43,92H33.7a1.092,1.092,0,0,1-.8-.31.664.664,0,0,1-.192-.5c.12-2.1-1.216-4.788-2.631-7.629-1.178-2.368-2.386-4.807-2.4-6.372,3.456-.712,7.509-2.281,10.076-5.911A5.288,5.288,0,0,1,42.029,69a1,1,0,0,0,0-2,7.289,7.289,0,0,0-5.914,3.126c-3.623,5.123-10.79,5.523-13.849,5.694a3.957,3.957,0,0,0-1.72.267,3.167,3.167,0,0,0-1.529,2.125c-.51,2.335,1.165,5.567,2.231,7.319a11.182,11.182,0,0,0-1.727.7,1,1,0,0,0,.911,1.781,7.527,7.527,0,0,1,3.852-.933,3.667,3.667,0,0,1,3.669,3.192L28,91.281a.564.564,0,0,1-.174.4A1.16,1.16,0,0,1,27,92H17.7a1.092,1.092,0,0,1-.8-.31.664.664,0,0,1-.192-.5c.12-2.1-1.216-4.788-2.631-7.629-.313-.628-.627-1.262-.922-1.883l-.009-.018a11.913,11.913,0,0,1-1.48-4.615,29.2,29.2,0,0,1,1.393-6.288,11.872,11.872,0,0,0-1.207-9.6,30,30,0,0,1-3.5-7.433c-.215-1.428-.389-2.367-.433-2.6a8.682,8.682,0,0,1,.209-2.453,10.113,10.113,0,0,1,2.962-4.86,17.981,17.981,0,0,1,8.78-4.346c.111-.024.225-.041.336-.063.205,5.874.99,9.437,2.335,10.6a1.962,1.962,0,0,0,1.584.5c1.485-.191,3.15-1.753,3.057-11.8,1.016-.037,2.032-.061,3.04-.082.526,4.088,1.4,5.235,2.036,5.736a1.978,1.978,0,0,0,1.507.434c1.631-.21,2.534-2.2,2.892-6.418,4.617-.353,9.141-1.3,13.139-4.153.109.19.211.384.328.571A16.761,16.761,0,0,0,48,35.566a3.748,3.748,0,0,0-1.482,5.609,16.845,16.845,0,0,0,14.767,6.959l7.141-.454L76,51.393a1,1,0,0,0,1.3-1.4l-2.532-4.35,3.448-2.006A74.174,74.174,0,0,1,76.726,59.218ZM88.148,21.305a2.057,2.057,0,0,0-.421-.766,1,1,0,0,0-1.516,1.3,5.988,5.988,0,0,1,.337,1.938c0,.01.006.017.007.027s0,.024,0,.036a14.7,14.7,0,0,1-1.207,8.1,27.367,27.367,0,0,0-12.91-1.081,1,1,0,0,0,.361,1.967,26.044,26.044,0,0,1,11.591.893,16.351,16.351,0,0,1-2.257,2.859A24.554,24.554,0,0,0,73,33.469a1,1,0,0,0-.22,1.988,23.587,23.587,0,0,1,7.789,2.536,18.2,18.2,0,0,1-2.086,1.439l-.033.019a19.834,19.834,0,0,1-3.371,1.577l-4.813-.3-1.978-1.295a10.218,10.218,0,0,0,4.591-.952,1,1,0,1,0-.945-1.761c-1.754.939-5.076.934-7.924.2l.463-1.534a1.828,1.828,0,0,0,.737-.405l1.517-1.376a1.853,1.853,0,0,0-.711-3.144L64,29.859a1.854,1.854,0,0,0-2.333,2.228h0l.5,1.982a1.84,1.84,0,0,0,.392.743l-.447,1.481a5.7,5.7,0,0,1-2.894-2.224,1,1,0,0,0-1.826.16,16.969,16.969,0,0,0-5.189.054,15.412,15.412,0,0,1-2.022-4.16,19.669,19.669,0,0,1,5.415.4,1,1,0,0,0,.5-1.936,21.058,21.058,0,0,0-6.394-.448,14.733,14.733,0,0,1-.191-2.36c0-.105.012-.208.014-.313a17.6,17.6,0,0,1,7.442,2.655A1,1,0,0,0,58.14,26.5a19.1,19.1,0,0,0-8.435-3.035A15.33,15.33,0,0,1,53.24,15.9a1,1,0,0,0-.219-1.488c-1.764-1.136-2.785-4.9-3.25-7.5,2.328.949,6.238,2.979,6.811,5.284a1,1,0,0,0,.97.759,1.06,1.06,0,0,0,.242-.029,1,1,0,0,0,.729-1.212C57.936,9.347,55.4,7.5,53.142,6.28c2.855.3,6.237,1.175,7.577,3.53a1,1,0,0,0,1.169.46c.225-.071.455-.124.683-.187a4.175,4.175,0,0,0-.085,2.994A2.049,2.049,0,0,0,63.862,14.2a2.457,2.457,0,0,0,.639.087c1.6,0,3.052-1.67,4.344-4.938.154.006.309.009.462.018-1.163,1.992-2.715,5.161-2.038,6.939a2.07,2.07,0,0,0,1.442,1.284,2.39,2.39,0,0,0,.615.082,2.59,2.59,0,0,0,1.321-.379c1.962-1.156,3.32-5.044,3.885-6.95.226.073.445.162.668.244-1.718,3.55-1.206,4.754-1.026,5.171a2.049,2.049,0,0,0,1.4,1.19,2.445,2.445,0,0,0,.639.087c1.409,0,2.712-1.286,3.886-3.836a.987.987,0,0,0,1,.038,15.5,15.5,0,0,1,7.595-1.571c-2.342,1.112-5.3,2.854-6.118,4.848a1,1,0,1,0,1.852.755c.663-1.622,4.316-3.54,6.992-4.616A51.193,51.193,0,0,1,88.148,21.305Z"/><path d="M50.879,40.361a.979.979,0,0,0,.256.034,1,1,0,0,0,.966-.746l.217-.825a1,1,0,0,0-1.933-.51l-.218.826A1,1,0,0,0,50.879,40.361Z"/><path d="M60.728,19a1,1,0,0,0-1.056,1.7c.031.021,3.207,2.038,3.46,4.888a1,1,0,0,0,.995.911c.029,0,.06,0,.09,0a1,1,0,0,0,.907-1.085C64.782,21.556,60.893,19.1,60.728,19Z"/><path d="M76.935,25.441c-.189-.052-4.632-1.236-7.69,1.135a1,1,0,1,0,1.225,1.58c2.258-1.748,5.883-.8,5.937-.786a1,1,0,0,0,.528-1.929Z"/></svg>