<?xml version="1.0" standalone="no"?>
<!DOCTYPE svg PUBLIC "-//W3C//DTD SVG 20010904//EN"
 "http://www.w3.org/TR/2001/REC-SVG-20010904/DTD/svg10.dtd">
<svg version="1.0" xmlns="http://www.w3.org/2000/svg"
 width="340.000000pt" height="270.000000pt" viewBox="0 0 340.000000 270.000000"
 preserveAspectRatio="xMidYMid meet">

<g transform="translate(0.000000,270.000000) scale(0.100000,-0.100000)"
fill="#000000" stroke="none">
<path d="M513 2595 c-10 -11 -10 -15 0 -18 9 -4 9 -6 0 -6 -18 -1 -16 -21 2
-21 18 0 18 4 5 -174 -6 -82 -15 -143 -22 -147 -7 -4 0 -13 18 -23 l29 -15
-32 -1 c-18 0 -33 -4 -33 -10 0 -11 19 -12 72 -4 30 5 37 10 35 26 -2 11 -8
23 -13 26 -5 4 -7 59 -4 132 3 69 8 118 12 110 3 -8 15 -62 28 -120 28 -132
41 -165 68 -167 18 -1 22 9 37 87 15 84 59 248 69 258 3 2 2 -63 -1 -144 -3
-82 -10 -150 -14 -152 -19 -8 -8 -22 17 -22 14 0 23 -4 19 -10 -3 -5 -18 -10
-33 -10 -54 -1 5 -21 75 -26 47 -3 62 -1 48 5 -11 5 -33 10 -50 11 -16 1 -23
4 -15 7 8 2 22 7 30 9 10 4 11 7 3 12 -14 9 5 333 20 343 5 4 3 10 -4 14 -9 6
-8 10 7 16 11 5 -9 8 -53 8 -74 1 -83 -3 -88 -42 -2 -12 -15 -60 -29 -106 -14
-47 -26 -96 -26 -110 -1 -25 -1 -25 -12 -6 -7 11 -13 54 -15 95 -1 41 -5 86
-9 100 -4 14 -8 29 -8 34 -1 5 -10 12 -20 16 -19 6 -19 7 0 15 17 7 15 9 -11
15 -49 12 -89 10 -102 -5z m77 -66 c0 -17 -3 -19 -14 -10 -8 7 -17 8 -20 3 -3
-4 -8 -72 -12 -150 -4 -78 -10 -140 -13 -138 -7 5 5 258 14 294 7 30 45 31 45
1z m47 -72 c13 -94 10 -114 -6 -35 -20 102 -24 133 -15 125 5 -5 14 -45 21
-90z m207 68 c9 -35 -5 -279 -15 -263 -5 7 -7 72 -5 143 l5 130 -10 -120 c-15
-182 -27 -202 -22 -35 3 80 6 151 9 158 6 21 32 13 38 -13z m-197 -37 c-3 -8
-6 -5 -6 6 -1 11 2 17 5 13 3 -3 4 -12 1 -19z m-40 -45 c-3 -10 -5 -4 -5 12 0
17 2 24 5 18 2 -7 2 -21 0 -30z m10 -55 c-3 -7 -5 -2 -5 12 0 14 2 19 5 13 2
-7 2 -19 0 -25z m90 -80 c-3 -8 -6 -5 -6 6 -1 11 2 17 5 13 3 -3 4 -12 1 -19z
m-28 -62 c1 -42 -5 -29 -12 24 -4 30 -3 38 3 25 5 -11 9 -33 9 -49z m18 12
c-3 -8 -6 -5 -6 6 -1 11 2 17 5 13 3 -3 4 -12 1 -19z"/>
<path d="M2535 2571 c-51 -32 -120 -112 -190 -219 -63 -96 -68 -102 -93 -95
-15 4 -37 7 -50 6 -26 -1 -24 10 13 89 24 50 23 57 -9 59 -19 1 -19 1 2 7 41
12 29 27 -23 30 -36 2 -46 0 -35 -8 13 -8 13 -10 -2 -10 -24 0 -23 -17 2 -25
25 -8 25 -7 -9 -80 l-27 -60 -16 64 c-9 35 -14 69 -11 76 2 7 -4 15 -14 18
-16 4 -16 5 0 6 17 1 25 21 7 21 -5 0 -7 7 -4 15 7 17 -18 18 -71 5 -25 -6
-26 -8 -7 -9 13 0 20 -6 17 -11 -3 -6 -17 -7 -31 -4 -35 9 -30 -3 9 -20 31
-12 34 -19 51 -92 10 -44 19 -86 22 -94 2 -8 -3 0 -12 19 -8 18 -21 61 -29 95
-10 45 -13 53 -14 29 -1 -18 10 -67 24 -110 22 -71 24 -84 14 -142 -9 -48 -16
-65 -30 -68 -18 -5 -18 -6 2 -24 12 -11 28 -19 36 -19 7 0 13 -4 13 -9 0 -6
-12 -6 -30 -1 -16 5 -30 5 -30 0 0 -10 80 -30 124 -30 39 0 41 -2 26 -31 -9
-15 -15 -17 -30 -9 -10 5 -29 10 -42 9 -20 0 -18 -2 9 -12 37 -14 54 -28 25
-20 -12 3 -36 0 -55 -6 -39 -13 -79 -51 -60 -58 8 -3 3 -16 -13 -40 -23 -35
-33 -70 -15 -59 4 3 8 -13 8 -35 0 -22 5 -45 11 -51 7 -7 9 2 5 30 -4 31 0 50
15 77 23 38 19 45 -11 18 -19 -17 -20 -17 -9 4 7 12 23 30 37 41 l26 21 -23 4
c-21 3 -19 5 14 20 21 9 51 17 67 17 26 0 34 7 52 43 12 23 32 54 46 69 24 25
26 26 60 12 19 -9 42 -14 51 -12 10 2 26 -7 36 -21 18 -22 24 -23 85 -18 55 4
70 2 90 -14 28 -23 54 -24 71 -4 12 14 15 14 31 -1 11 -10 28 -15 43 -12 23 5
26 1 32 -31 10 -60 12 -63 42 -56 16 3 39 1 53 -4 24 -10 24 -10 2 -10 -32 -1
-28 -14 9 -30 18 -8 27 -16 20 -19 -8 -2 -5 -15 10 -41 21 -36 21 -40 6 -72
-9 -19 -19 -45 -23 -59 l-6 -25 21 25 c33 39 42 70 31 102 -6 17 -6 28 0 28
15 0 11 15 -13 46 -13 15 -23 35 -23 43 0 9 -12 22 -27 29 -16 7 -28 17 -28
22 0 6 -10 6 -26 0 -35 -14 -34 -15 -34 30 0 28 4 40 15 40 7 0 19 8 24 18 9
14 10 15 11 1 0 -9 9 -27 20 -40 11 -13 31 -37 44 -54 21 -26 27 -28 44 -18
14 9 22 9 31 0 8 -8 14 -8 24 2 10 10 9 11 -4 6 -12 -5 -20 2 -27 22 -9 25
-11 26 -11 6 -2 -56 -81 4 -81 62 0 17 -2 17 -10 5 -8 -12 -10 -9 -10 12 0 14
3 34 6 43 6 14 8 14 25 -1 18 -16 19 -16 19 24 0 34 4 42 18 41 21 -1 62 -17
45 -18 -22 -1 -14 -16 17 -34 34 -21 66 -72 50 -82 -6 -3 -13 1 -16 9 -3 9
-10 16 -15 16 -14 0 1 -28 18 -35 9 -3 20 -1 23 6 12 18 1 45 -31 75 -16 15
-29 33 -29 41 0 15 -32 33 -59 33 -18 0 -21 6 -21 38 0 66 -20 113 -70 166
-55 59 -73 92 -101 181 -30 97 -79 127 -144 86z m-445 -249 c7 -29 10 -55 7
-58 -4 -4 -37 115 -37 133 1 18 18 -26 30 -75z m56 -78 c-20 -48 -25 -54 -26
-31 0 24 40 101 48 92 2 -1 -8 -29 -22 -61z m109 -4 c-3 -6 5 -10 18 -10 14 0
27 -7 31 -15 3 -9 18 -15 35 -15 17 0 38 -8 48 -19 12 -13 32 -19 62 -18 36 0
49 -5 65 -25 18 -22 25 -24 50 -15 22 7 37 6 64 -7 33 -16 35 -16 54 4 22 23
31 25 46 7 9 -10 8 -19 -3 -35 -15 -20 -14 -21 16 -24 37 -4 60 -31 42 -49 -9
-9 -16 -9 -30 1 -15 12 -16 12 -5 0 31 -36 -4 -56 -41 -22 -19 16 -19 16 -13
-6 10 -31 -18 -40 -55 -18 -16 9 -29 13 -29 7 0 -20 -41 -23 -68 -5 -21 14
-43 17 -94 15 -55 -2 -69 0 -74 13 -3 9 -1 23 6 31 14 17 -1 20 -17 4 -15 -15
-97 -3 -114 17 -8 10 -15 11 -24 4 -16 -13 -53 0 -78 28 -22 24 -15 42 15 42
17 0 18 2 8 15 -10 12 -15 13 -20 4 -4 -6 -7 1 -7 16 0 18 4 25 13 21 10 -4
14 3 14 23 0 15 3 31 7 34 11 11 85 8 78 -3z m454 -21 c17 -19 81 -133 81
-145 0 -2 -11 1 -24 7 -15 7 -22 17 -19 25 7 19 -15 44 -38 44 -20 0 -39 35
-39 71 0 25 14 24 39 -2z m-606 -21 c-8 -46 -13 -48 -13 -5 0 21 4 37 10 37 5
0 7 -14 3 -32z m-26 -105 c-2 -21 -4 -4 -4 37 0 41 2 58 4 38 2 -21 2 -55 0
-75z m44 20 c-3 -42 -5 -45 -14 -25 -7 15 -7 30 1 47 6 14 13 25 14 25 2 0 1
-21 -1 -47z m38 -56 c6 -8 14 -29 17 -48 5 -27 4 -32 -6 -22 -7 6 -27 9 -46 6
-23 -4 -34 -2 -34 7 0 7 7 10 16 6 9 -4 26 -4 37 0 20 6 20 7 2 20 -12 9 -14
14 -6 14 11 0 11 3 1 15 -7 8 -8 15 -2 15 5 0 15 -6 21 -13z m41 -28 c0 -6 -4
-7 -10 -4 -5 3 -10 11 -10 16 0 6 5 7 10 4 6 -3 10 -11 10 -16z"/>
<path d="M1385 2519 c-22 -3 -32 -7 -22 -8 9 0 17 -5 17 -10 0 -5 -8 -12 -17
-14 -11 -3 -6 -5 11 -6 28 -1 29 -2 22 -47 -3 -26 -6 -105 -6 -175 l0 -129
-40 0 -40 0 21 -21 c35 -35 130 -46 204 -25 151 45 205 223 108 354 -45 61
-158 96 -258 81z m75 -19 c21 -7 18 -8 -18 -9 -26 -1 -41 3 -37 9 7 11 19 11
55 0z m-39 -100 l-9 -55 -1 61 c0 33 2 64 7 68 12 13 13 -15 3 -74z m44 48
c-4 -18 -12 -37 -18 -43 -7 -7 -8 -4 -3 8 3 10 6 30 6 43 0 13 5 24 11 24 7 0
8 -12 4 -32z m79 8 c47 -20 59 -62 54 -187 -2 -54 -8 -103 -14 -109 -5 -5 -31
-13 -57 -16 l-47 -7 0 167 c0 183 -2 180 64 152z m93 -84 c3 -12 2 -44 -3 -70
l-8 -47 -6 55 c-4 30 -10 71 -14 90 -7 33 -6 34 9 15 9 -11 18 -30 22 -43z
m-230 -84 c-2 -13 -4 -5 -4 17 -1 22 1 32 4 23 2 -10 2 -28 0 -40z m48 -146
c-14 -14 -16 15 -8 105 l8 98 3 -99 c1 -54 0 -101 -3 -104z m206 140 c-9 -25
-9 -24 -10 18 0 36 2 41 10 27 7 -12 7 -27 0 -45z m-25 -77 c-22 -34 -29 -28
-14 13 8 20 16 28 22 22 5 -5 2 -19 -8 -35z m-215 -68 c-13 -13 -15 24 -3 74
7 33 7 32 10 -15 2 -27 -2 -54 -7 -59z m236 56 c-8 -15 -26 -38 -39 -50 -25
-23 -99 -54 -127 -52 -9 0 5 8 32 17 55 20 114 64 129 98 6 13 13 22 15 20 3
-2 -2 -17 -10 -33z m-204 -80 c-7 -2 -21 -2 -30 0 -10 3 -4 5 12 5 17 0 24 -2
18 -5z"/>
<path d="M900 2490 c0 -5 15 -11 33 -11 31 -2 30 -2 -8 -9 -39 -6 -39 -6 -12
-14 25 -8 27 -12 27 -63 0 -30 7 -82 16 -115 12 -49 13 -70 3 -116 -6 -32 -16
-66 -22 -77 -6 -11 -11 -24 -12 -30 0 -6 -94 -10 -262 -10 -169 0 -254 -3
-240 -9 12 -5 113 -10 224 -10 111 -1 200 -2 198 -4 -1 -2 -85 -11 -186 -21
-176 -18 -180 -19 -89 -20 52 0 157 8 232 19 124 17 142 18 179 5 23 -8 58
-15 78 -15 34 1 35 2 17 15 -18 14 -10 15 77 15 58 0 97 4 97 10 0 6 45 10
114 10 63 0 117 4 120 8 3 5 -95 6 -217 4 l-223 -4 -1 23 c-2 13 4 63 11 111
11 67 24 106 58 168 36 68 41 82 28 90 -10 6 -11 10 -2 10 18 0 15 27 -4 34
-9 3 -28 6 -42 6 -26 -1 -26 -1 -8 -15 19 -15 19 -15 -2 -15 -28 0 -29 -16 -1
-23 20 -5 19 -7 -11 -67 -17 -34 -30 -64 -27 -66 2 -2 14 19 27 46 13 28 32
57 42 67 21 19 25 8 4 -13 -8 -7 -29 -50 -47 -94 -18 -44 -37 -80 -41 -80 -10
0 -10 3 1 32 6 16 3 47 -10 98 -11 47 -15 76 -8 78 6 3 6 9 -2 18 -6 7 -9 21
-5 29 4 12 -5 15 -49 15 -30 0 -55 -4 -55 -10z m82 -97 c-7 -65 -12 -67 -12
-5 0 29 4 52 9 52 5 0 6 -21 3 -47z m26 -68 l0 -40 -9 40 c-4 22 -8 51 -7 65
l0 25 8 -25 c4 -14 8 -43 8 -65z m-18 -170 c0 -41 -3 -75 -7 -75 -5 0 -7 34
-5 75 2 41 5 75 8 75 2 0 4 -34 4 -75z m43 -26 c-5 -30 -13 -52 -18 -49 -12 6
-8 54 7 94 16 40 20 21 11 -45z m-8 -109 l20 -9 -20 0 c-11 0 -27 4 -35 9 -13
9 -13 10 0 9 8 0 24 -4 35 -9z"/>
<path d="M1797 2493 c-14 -4 -15 -8 -7 -18 8 -9 8 -25 1 -52 -5 -21 -15 -64
-21 -95 -8 -41 -16 -58 -27 -58 -13 0 -13 -3 -3 -15 16 -20 4 -125 -15 -125
-7 0 -16 -7 -19 -16 -8 -22 -8 -22 13 -34 26 -13 84 6 61 20 -8 6 -11 10 -6
10 5 0 4 6 -2 13 -8 10 -8 24 -1 51 l11 38 46 -6 c25 -3 47 -8 49 -10 2 -2 7
-20 10 -40 5 -30 3 -36 -13 -37 -11 0 -14 -3 -6 -6 17 -7 15 -21 -5 -26 -10
-3 5 -5 32 -6 28 0 55 3 60 7 16 12 16 32 0 32 -8 0 -15 4 -15 9 0 5 -13 80
-30 168 -17 94 -25 159 -20 161 17 6 11 18 -15 30 -26 12 -46 13 -78 5z m33
-50 c0 -10 -8 -27 -17 -38 -15 -20 -15 -19 -9 5 3 14 6 31 6 38 0 6 5 12 10
12 6 0 10 -8 10 -17z m43 -28 c5 -28 4 -34 -3 -20 -8 19 -14 73 -6 64 2 -2 6
-22 9 -44z m-11 -103 c6 -39 10 -74 7 -76 -9 -9 -80 17 -76 28 2 6 12 42 22
79 21 79 29 74 47 -31z m-75 -14 c-3 -8 -6 -5 -6 6 -1 11 2 17 5 13 3 -3 4
-12 1 -19z"/>
<path d="M1660 2049 c-167 -9 -262 -20 -280 -31 -10 -6 5 -7 40 -3 136 16 286
25 413 25 84 0 137 4 137 10 0 11 -111 11 -310 -1z"/>
<path d="M2485 1914 c-14 -15 -25 -34 -25 -42 0 -12 -3 -12 -15 -2 -14 11 -14
9 0 -16 35 -67 9 -84 -44 -30 -19 20 -40 32 -48 29 -7 -3 -22 2 -33 12 -10 9
-23 14 -29 11 -5 -4 -12 -2 -16 4 -3 5 -16 10 -28 10 -20 -1 -19 -3 11 -31 31
-28 35 -49 10 -49 -6 0 -27 11 -47 26 -33 23 -32 22 4 -8 21 -18 60 -52 86
-76 l46 -42 34 32 c49 46 107 47 127 3 l11 -24 -34 19 c-34 19 -36 19 -67 1
-18 -10 -34 -26 -36 -37 -2 -17 -1 -17 7 -3 6 9 24 22 41 29 25 11 34 10 56
-5 14 -9 24 -18 22 -21 -2 -2 -29 -8 -59 -13 l-54 -10 55 2 c50 1 59 5 100 44
25 23 62 49 83 58 42 17 49 28 13 19 -18 -4 -27 -1 -35 14 -15 29 -15 29 25
36 26 5 34 11 30 22 -3 9 -6 18 -6 20 0 9 -37 3 -63 -11 -19 -10 -26 -10 -22
-2 4 7 -16 -12 -44 -42 -27 -29 -54 -50 -60 -46 -21 13 -12 82 15 114 32 38
23 41 -11 5z m125 -113 c0 -24 -64 -73 -79 -58 -22 22 -12 37 22 35 29 -3 32
-1 29 24 -2 21 1 26 13 22 8 -3 15 -14 15 -23z m-290 0 c0 -29 18 -35 41 -15
17 16 22 16 29 4 14 -22 12 -28 -16 -46 -25 -17 -26 -17 -61 18 -34 35 -37 58
-7 58 8 0 14 -9 14 -19z"/>
<path d="M478 1899 c-16 -9 -58 -69 -58 -83 0 -3 10 -6 23 -6 13 0 28 -5 34
-11 7 -7 12 -3 17 16 7 27 -3 51 -11 28 -5 -13 -33 -18 -33 -6 0 4 12 19 27
35 28 29 29 43 1 27z"/>
<path d="M575 1884 c-9 -9 -15 -28 -13 -43 2 -20 9 -26 27 -26 30 0 46 24 37
58 -7 31 -27 35 -51 11z m31 -51 c-5 -12 -10 -13 -17 -6 -8 8 -7 18 2 34 12
21 14 22 17 6 2 -10 1 -25 -2 -34z"/>
<path d="M656 1884 c-20 -20 -21 -60 -1 -68 35 -13 60 17 49 60 -7 28 -26 31
-48 8z m30 -39 c-7 -18 -26 -20 -26 -2 0 18 24 41 28 27 2 -6 1 -17 -2 -25z"/>
<path d="M2081 1816 c-8 -9 -8 -16 -2 -20 5 -4 12 -2 16 4 13 22 20 8 17 -34
-4 -42 0 -48 43 -95 29 -31 89 -74 154 -112 58 -34 113 -67 122 -73 8 -6 1 1
-15 17 -17 15 -71 52 -121 82 -134 81 -175 124 -175 182 0 41 22 53 53 27 19
-16 19 -15 -2 9 -27 30 -71 36 -90 13z"/>
<path d="M2704 1804 c-18 -15 -18 -15 0 -10 46 15 79 -64 53 -127 -13 -30 -29
-43 -99 -78 -46 -23 -103 -57 -127 -77 l-43 -35 5 29 c3 16 2 49 -2 74 -8 42
-9 40 -10 -32 0 -42 -4 -85 -8 -95 -4 -11 11 -2 38 22 24 22 86 62 138 90 63
33 100 59 112 80 23 37 24 103 3 133 -8 12 -12 22 -7 22 9 0 -18 20 -28 20 -3
0 -14 -7 -25 -16z"/>
<path d="M2019 1737 c-18 -40 42 -144 78 -135 4 1 28 -17 53 -41 29 -27 94
-66 187 -111 l143 -70 41 30 c23 16 78 43 124 60 48 19 103 48 131 72 40 33
49 46 51 76 l2 37 -24 -47 c-30 -56 -65 -82 -159 -118 -40 -15 -93 -41 -119
-58 l-46 -32 -138 67 c-109 54 -150 80 -195 124 -31 31 -60 68 -64 83 -3 14
-10 26 -15 26 -11 0 -11 -7 0 -48 13 -43 -6 -32 -26 15 -8 21 -12 47 -8 64 8
35 -1 38 -16 6z"/>
<path d="M447 1728 c-34 -34 -60 -85 -47 -93 6 -3 19 -3 30 0 13 4 22 1 26 -9
3 -9 10 -16 14 -16 12 0 20 42 11 57 -6 12 -10 12 -20 -1 -13 -16 -41 -22 -41
-10 0 3 14 24 31 46 36 44 33 63 -4 26z"/>
<path d="M555 1685 c2 -30 0 -57 -5 -60 -6 -3 -10 -11 -10 -17 0 -7 5 -6 14 2
16 13 20 130 5 130 -5 0 -7 -25 -4 -55z"/>
<path d="M612 1717 c-17 -21 -24 -70 -12 -87 9 -13 13 -12 30 9 23 27 25 50 7
75 -11 15 -15 16 -25 3z m18 -42 c0 -19 -4 -35 -10 -35 -11 0 -14 53 -3 63 11
12 13 8 13 -28z"/>
<path d="M2317 1679 c7 -7 15 -10 18 -7 3 3 -2 9 -12 12 -14 6 -15 5 -6 -5z"/>
<path d="M541 1510 c-24 -39 -25 -53 -11 -81 13 -23 24 -24 44 -3 19 19 20 60
2 94 l-14 24 -21 -34z m27 -37 c-3 -42 -28 -59 -28 -20 0 32 9 57 22 57 5 0 8
-17 6 -37z"/>
<path d="M414 1508 c-5 -16 -1 -27 15 -39 28 -23 27 -43 -4 -67 -30 -24 -32
-32 -5 -25 46 12 69 90 30 100 -25 7 -26 40 -2 46 13 4 12 5 -5 6 -14 1 -24
-7 -29 -21z"/>
<path d="M621 1516 c-8 -9 -16 -36 -18 -60 -6 -53 11 -70 39 -36 21 26 24 69
5 94 -12 16 -14 16 -26 2z m18 -73 c-7 -19 -13 -23 -20 -16 -8 8 -8 22 1 49
12 35 14 37 21 16 5 -13 4 -34 -2 -49z"/>
<path d="M1708 1460 c2 -22 5 -40 7 -40 2 0 5 18 7 40 2 24 -1 40 -7 40 -6 0
-9 -16 -7 -40z"/>
<path d="M1752 1458 c2 -23 8 -43 16 -44 7 -1 8 0 2 3 -14 7 -12 70 3 76 7 3
4 6 -6 6 -15 1 -18 -6 -15 -41z"/>
<path d="M1790 1462 c0 -22 4 -43 9 -46 5 -4 7 12 4 36 -8 57 -13 61 -13 10z"/>
<path d="M1820 1462 c0 -22 4 -43 9 -46 5 -4 7 12 4 36 -8 57 -13 61 -13 10z"/>
<path d="M1942 1459 c2 -24 8 -44 16 -45 7 -1 8 0 2 3 -13 6 -13 73 -1 73 6 0
12 -15 14 -32 l5 -33 -2 35 c-1 25 -6 36 -19 38 -16 3 -18 -2 -15 -39z"/>
<path d="M2024 1486 c-10 -26 0 -71 16 -71 11 0 15 12 16 43 l1 42 -4 -40 c-2
-22 -9 -40 -15 -40 -6 0 -9 16 -6 40 4 42 1 50 -8 26z"/>
<path d="M2071 1458 c0 -31 3 -37 8 -23 8 19 8 19 19 0 6 -11 12 -15 12 -9 0
13 -29 74 -36 74 -2 0 -4 -19 -3 -42z"/>
<path d="M2212 1480 c0 -14 2 -19 5 -12 2 6 2 18 0 25 -3 6 -5 1 -5 -13z"/>
<path d="M1885 1460 c-4 -17 -4 -34 -1 -37 3 -4 6 5 6 18 l1 24 14 -25 c19
-32 19 -11 1 25 l-14 27 -7 -32z"/>
<path d="M2214 1435 c-3 -8 -4 -20 -2 -27 3 -7 7 -1 10 15 6 29 1 36 -8 12z"/>
<path d="M2130 1425 c0 -8 4 -15 10 -15 5 0 7 7 4 15 -4 8 -8 15 -10 15 -2 0
-4 -7 -4 -15z"/>
<path d="M433 1318 c-34 -45 -39 -114 -7 -87 11 9 21 9 39 1 14 -7 25 -16 25
-21 0 -19 -30 -33 -57 -27 -24 6 -29 3 -30 -14 -1 -16 4 -20 31 -20 44 0 86
33 86 69 0 35 -17 51 -53 51 -25 0 -27 2 -17 14 6 8 23 16 37 18 44 5 40 28
-5 28 -22 0 -44 -6 -49 -12z m77 -78 c0 -5 -2 -10 -4 -10 -3 0 -8 5 -11 10 -3
6 -1 10 4 10 6 0 11 -4 11 -10z"/>
<path d="M580 1309 c-11 -6 -12 -9 -2 -9 9 0 11 -7 7 -19 -3 -11 0 -29 7 -41
11 -19 10 -24 -11 -41 -15 -12 -18 -19 -9 -19 33 0 63 60 38 75 -6 3 -7 17 -4
30 7 26 -5 38 -26 24z"/>
<path d="M654 1284 c-18 -43 -15 -73 8 -88 13 -8 22 -6 37 8 24 21 27 53 9 91
-16 35 -36 31 -54 -11z m46 -19 c0 -34 -10 -55 -26 -55 -17 0 -19 43 -3 71 13
24 29 16 29 -16z"/>
<path d="M375 1076 c-21 -31 -30 -105 -16 -125 8 -12 14 -13 35 -3 31 14 34
32 6 39 -23 6 -25 26 -9 72 14 41 5 50 -16 17z"/>
<path d="M491 1081 c-10 -7 -10 -10 -1 -13 10 -3 10 -9 1 -26 -8 -14 -8 -22
-1 -22 17 0 11 -42 -7 -56 -17 -13 -17 -13 0 -14 24 0 44 46 30 69 -7 12 -8
23 -1 35 12 21 -1 39 -21 27z"/>
<path d="M556 1057 c-19 -28 -19 -98 0 -104 36 -12 59 73 30 112 -13 18 -14
17 -30 -8z m30 -61 c-3 -14 -13 -26 -21 -26 -18 0 -18 3 -4 55 11 37 12 38 22
18 5 -12 7 -33 3 -47z"/>
<path d="M2347 1041 c-4 -17 -3 -21 5 -13 5 5 8 16 6 23 -3 8 -7 3 -11 -10z"/>
<path d="M1968 1023 c7 -3 16 -2 19 1 4 3 -2 6 -13 5 -11 0 -14 -3 -6 -6z"/>
<path d="M340 870 c0 -5 14 -10 30 -10 29 0 40 -13 21 -24 -20 -13 -63 -98
-54 -107 12 -12 32 11 69 79 23 45 26 55 13 63 -19 12 -79 11 -79 -1z"/>
<path d="M500 840 c-6 -12 -10 -42 -8 -68 4 -55 25 -64 47 -18 11 24 11 35 1
67 -15 44 -24 48 -40 19z m30 -50 c0 -36 -10 -61 -21 -54 -10 6 -12 54 -3 78
9 24 24 9 24 -24z"/>
<path d="M581 842 c-14 -26 -14 -89 -1 -97 33 -20 54 62 26 100 -13 18 -14 18
-25 -3z m23 -68 c-7 -26 -24 -33 -24 -10 0 7 3 28 7 47 6 30 7 31 15 10 4 -12
5 -34 2 -47z"/>
<path d="M2988 717 c-15 -36 -5 -197 12 -197 4 0 10 26 13 58 4 31 9 73 13 92
7 31 6 34 -9 22 -13 -12 -16 -10 -19 15 -2 23 -4 25 -10 10z"/>
<path d="M2723 700 c-11 -12 -9 -118 3 -179 9 -44 23 -7 26 69 3 70 5 75 26
78 86 12 146 -102 91 -171 -24 -31 -100 -59 -107 -39 -2 7 -8 10 -13 6 -5 -3
-9 1 -9 8 0 11 -2 10 -9 0 -9 -15 -15 16 -27 131 -4 37 -11 70 -16 73 -5 3 -7
-5 -4 -18 10 -44 27 -204 24 -219 -5 -25 130 -18 173 9 88 54 86 169 -4 236
-32 24 -136 34 -154 16z m187 -152 c-8 -22 -9 -21 -10 7 0 17 -3 41 -5 55 -4
20 -2 19 10 -7 10 -22 12 -39 5 -55z m0 -64 c-8 -8 -23 -20 -34 -26 -19 -10
-18 -8 3 16 26 27 53 37 31 10z"/>
<path d="M2322 693 c-7 -3 -31 -42 -54 -86 -45 -91 -50 -90 -64 13 -7 53 -29
65 -29 17 1 -15 -3 -27 -7 -27 -4 0 -8 15 -8 34 0 19 -5 38 -12 42 -8 5 -9 -7
-4 -47 3 -30 13 -110 21 -179 23 -193 22 -190 50 -188 24 2 25 5 25 73 0 95
12 111 48 65 35 -46 116 -129 106 -110 -4 8 -26 38 -49 65 -22 28 -46 57 -53
66 -14 18 -6 52 10 43 6 -4 5 -9 -2 -14 -9 -6 5 -30 49 -84 34 -42 64 -76 67
-76 7 0 -15 38 -26 45 -6 3 -10 11 -10 18 0 6 19 -7 41 -28 48 -46 43 -33 -16
45 -23 30 -55 78 -70 107 l-28 52 27 35 c33 44 34 61 1 21 -37 -45 -30 -15 10
40 25 36 31 51 22 57 -13 9 -26 9 -45 1z m-135 -55 c-3 -8 -6 -5 -6 6 -1 11 2
17 5 13 3 -3 4 -12 1 -19z m133 -149 c0 -6 -4 -7 -10 -4 -5 3 -10 11 -10 16 0
6 5 7 10 4 6 -3 10 -11 10 -16z"/>
<path d="M2470 661 c-38 -5 -46 -10 -49 -31 -3 -22 12 -165 25 -230 l5 -26 86
10 c105 11 145 35 61 37 l-53 1 50 14 50 14 -76 -6 -76 -5 -7 32 c-3 18 -5 34
-3 36 2 1 32 6 66 9 79 9 88 21 13 18 -31 -1 -43 0 -27 3 53 8 47 20 -8 15
-50 -4 -55 -2 -60 19 -9 34 -1 39 57 39 32 0 60 6 72 16 17 14 13 15 -58 9
-53 -5 -78 -3 -78 4 0 7 23 11 58 11 31 0 64 5 72 10 17 11 -42 11 -120 1z
m10 -206 c0 -8 -2 -15 -4 -15 -2 0 -6 7 -10 15 -3 8 -1 15 4 15 6 0 10 -7 10
-15z"/>
<path d="M982 621 c-5 -3 -17 -44 -26 -91 -25 -126 -26 -130 -34 -130 -4 0
-28 40 -52 89 -26 55 -51 91 -62 94 -20 6 -20 10 3 -172 5 -41 7 -76 5 -78 -7
-8 -15 30 -26 131 -6 55 -13 102 -16 105 -4 3 -5 -11 -2 -31 5 -48 -8 -50 -17
-2 -3 20 -8 34 -11 32 -7 -8 57 -328 66 -328 3 0 13 7 23 14 17 13 17 19 3 97
-12 74 -13 102 -3 88 2 -2 25 -41 52 -87 49 -83 75 -103 75 -57 0 14 7 54 14
88 8 34 19 80 24 102 l8 40 12 -67 c24 -129 60 -211 63 -140 1 16 3 20 6 10 2
-10 9 -18 14 -18 6 0 8 8 5 18 -2 9 -12 64 -21 122 -25 165 -30 179 -65 178
-16 -1 -33 -4 -38 -7z m62 -71 c4 -38 3 -50 -4 -40 -9 13 -15 109 -6 99 2 -2
6 -29 10 -59z m-134 -195 c0 -5 -5 -3 -10 5 -5 8 -10 20 -10 25 0 6 5 3 10 -5
5 -8 10 -19 10 -25z"/>
<path d="M1897 615 c-40 -14 -87 -51 -87 -68 0 -5 9 1 20 14 10 13 19 19 20
12 0 -6 -4 -15 -10 -18 -5 -3 -10 -24 -10 -46 0 -47 -20 -53 -21 -6 0 27 -2
29 -9 12 -5 -11 -9 -15 -9 -9 -1 7 -22 35 -47 63 -43 48 -49 51 -95 51 -141 0
-212 -107 -139 -208 59 -79 125 -100 199 -62 39 19 91 72 91 92 0 6 24 -14 53
-44 70 -73 100 -80 176 -41 73 37 100 84 82 144 -7 22 -31 60 -55 84 -36 39
-48 45 -82 45 -21 -1 -56 -7 -77 -15z m120 -60 c34 -34 35 -38 31 -92 -4 -46
-10 -61 -33 -81 -49 -42 -115 -14 -137 59 -9 32 -8 46 6 82 28 73 79 86 133
32z m-317 -3 c56 -57 45 -153 -21 -187 -29 -16 -35 -16 -64 -2 -34 16 -65 68
-65 109 0 12 7 36 15 52 9 16 13 31 11 33 -3 3 -12 -10 -21 -28 -13 -23 -16
-47 -12 -83 l5 -51 -15 35 c-16 38 -12 80 13 118 8 13 21 21 28 19 7 -3 19 -1
27 4 28 18 70 9 99 -19z m-176 7 c-4 -6 -12 -32 -19 -58 -13 -46 -13 -46 -14
-11 -1 20 6 46 15 58 15 22 31 32 18 11z m348 -33 c-14 -37 -14 -53 -5 -88 10
-38 10 -41 -3 -24 -19 26 -18 106 2 134 22 32 23 27 6 -22z m-112 -58 c0 -20
-3 -39 -7 -41 -5 -3 -8 20 -9 49 0 32 3 49 8 42 4 -7 8 -30 8 -50z m320 5 c0
-17 -4 -34 -8 -37 -5 -3 -9 18 -9 46 0 32 2 46 8 37 5 -8 9 -28 9 -46z m-290
-7 c0 -26 -6 -18 -14 19 -5 22 -4 26 4 15 5 -8 10 -24 10 -34z m307 -8 c-2
-13 -4 -5 -4 17 -1 22 1 32 4 23 2 -10 2 -28 0 -40z"/>
<path d="M1252 608 c3 -7 -2 -19 -10 -28 -12 -12 -14 -39 -9 -151 3 -93 2
-140 -6 -148 -8 -8 -7 -11 2 -11 11 0 11 -3 0 -16 -43 -52 144 52 207 115 l25
24 -36 37 -35 36 26 26 c15 14 24 30 20 36 -6 9 -58 36 -144 73 -30 13 -42 15
-40 7z m7 -105 c-1 -53 -3 -61 -9 -38 -11 45 -11 105 0 105 6 0 10 -28 9 -67z
m101 9 c0 -4 -17 -18 -36 -30 -29 -19 -38 -21 -45 -10 -10 15 -12 72 -3 81 8
7 84 -30 84 -41z m46 -7 c-11 -8 -24 -15 -30 -15 -5 0 -1 7 10 15 10 8 24 14
29 14 6 0 1 -6 -9 -14z m-45 -104 l23 -18 -49 -31 -50 -31 -3 36 c-3 27 2 41
14 50 24 18 38 16 65 -6z m-92 -73 c1 -10 -3 -18 -9 -18 -5 0 -10 17 -9 38 0
30 2 33 9 17 5 -11 9 -28 9 -37z"/>
<path d="M657 587 c-8 -21 2 -105 14 -113 10 -6 10 70 0 106 -6 21 -8 22 -14
7z"/>
<path d="M550 524 c0 -20 37 -265 46 -304 l6 -25 10 25 c7 18 11 21 17 11 15
-23 20 26 10 96 -12 83 -37 204 -44 211 -3 3 -5 -6 -5 -19 l-1 -24 -19 24
c-17 20 -20 21 -20 5z"/>
<path d="M2994 454 c3 -9 6 -21 6 -27 0 -8 3 -8 10 -1 12 12 3 44 -12 44 -6 0
-7 -7 -4 -16z"/>
<path d="M2815 289 c-189 -14 -319 -27 -700 -69 -476 -53 -695 -83 -660 -91
l30 -6 -35 -5 c-57 -9 209 3 290 13 41 5 176 18 300 29 124 11 281 27 350 35
69 9 179 22 245 30 66 8 186 20 267 27 142 12 147 13 128 30 -21 20 -36 20
-215 7z m-206 -34 c-5 -4 -280 -36 -439 -51 -136 -12 -68 4 90 21 85 10 184
21 220 25 83 9 135 11 129 5z m-520 -59 c-2 -2 -40 -6 -84 -9 -49 -4 -68 -3
-50 2 30 9 142 14 134 7z"/>
<path d="M965 203 c-49 -4 -273 -41 -299 -49 -15 -5 -16 -8 -5 -15 11 -7 11
-9 -2 -9 -9 0 -27 -8 -40 -19 -21 -17 -15 -17 81 5 58 14 185 34 283 47 142
18 175 25 165 35 -12 12 -87 14 -183 5z"/>
<path d="M1363 123 c9 -2 25 -2 35 0 9 3 1 5 -18 5 -19 0 -27 -2 -17 -5z"/>
</g>
</svg>
